# Blender v2.79 (sub 0) OBJ File: ''
# www.blender.org
mtllib triangle_rect.mtl
o Plane_Plane.001
v 100.000000 -0.000016 100.000000
v 100.000000 0.000016 -100.000000
v -100.000000 0.000016 -100.000000
v 100.000000 0.000000 0.000000
v 100.000000 0.000000 -2.449062
v 95.101875 -0.000015 95.101875
v 100.000000 0.000001 -6.429062
v 87.141876 -0.000014 87.141876
v 100.000000 0.000002 -11.025494
v 77.949013 -0.000013 77.949013
v 100.000000 0.000003 -17.360783
v 65.278435 -0.000011 65.278435
v 100.000000 0.000004 -25.845329
v 48.309341 -0.000008 48.309341
v 100.000000 0.000006 -36.271210
v 27.457584 -0.000004 27.457584
v 100.000000 0.000008 -48.504745
v 2.990517 -0.000000 2.990517
v 100.000000 0.000010 -60.885380
v -21.770756 0.000004 -21.770756
v 100.000000 0.000012 -73.983658
v -47.967316 0.000008 -47.967316
v 100.000000 0.000014 -86.991829
v -73.983658 0.000012 -73.983658
v -78.534706 0.000016 -100.000000
v 100.000000 -0.000015 89.267349
v 95.627571 -0.000014 84.632080
v 88.521896 -0.000013 77.099236
v 80.315666 -0.000011 68.399689
v 69.004974 -0.000009 56.409058
v 53.857117 -0.000007 40.350582
v 35.243305 -0.000003 20.617798
v 13.402203 0.000000 -2.536289
v -8.701530 0.000004 -25.968792
v -32.086506 0.000008 -50.759560
v -55.310608 0.000012 -75.379784
v 100.000000 -0.000013 78.742065
v -57.484138 0.000016 -100.000000
v 96.143112 -0.000012 74.364563
v 89.875252 -0.000011 67.250626
v 82.636597 -0.000010 59.034870
v 72.659523 -0.000008 47.711044
v 59.297707 -0.000005 32.545593
v 42.878601 -0.000002 13.910160
v 23.612728 0.000001 -7.956312
v 4.115189 0.000005 -30.085716
v -16.512531 0.000009 -53.497852
v -36.998333 0.000013 -76.748932
v 100.000000 -0.000011 69.288971
v -38.577946 0.000016 -100.000000
v 96.606140 -0.000011 65.142975
v 91.090744 -0.000010 58.405273
v 84.721100 -0.000008 50.624027
v 75.941788 -0.000007 39.899078
v 64.184074 -0.000004 25.535681
v 49.736103 -0.000001 7.885818
v 32.783127 0.000002 -12.824209
v 15.626293 0.000006 -33.783260
v -2.525036 0.000009 -55.957199
v -20.551487 0.000013 -77.978607
v 100.000000 -0.000010 59.887306
v -19.774612 0.000016 -100.000000
v 97.066643 -0.000009 55.971565
v 92.299622 -0.000008 49.608051
v 86.794258 -0.000007 42.258942
v 79.206192 -0.000005 32.129616
v 69.043861 -0.000003 18.563908
v 56.556293 -0.000000 1.894253
v 41.903633 0.000003 -17.665621
v 27.074768 0.000006 -37.460686
v 11.386353 0.000010 -58.403168
v -4.194130 0.000013 -79.201591
v 100.000000 -0.000009 52.247444
v -4.494884 0.000016 -100.000000
v 97.440857 -0.000008 48.518806
v 93.281967 -0.000007 42.459358
v 88.478920 -0.000006 35.461411
v 81.858871 -0.000004 25.816092
v 72.992958 -0.000002 12.898592
v 62.098434 0.000000 -2.974542
v 49.315025 0.000004 -21.599789
v 36.377892 0.000007 -40.448990
v 22.690857 0.000010 -60.390781
v 9.097984 0.000013 -80.195396
v 100.000000 0.000009 -54.695061
v -9.390120 0.000002 -9.390120
v 2.350336 0.000002 -14.252541
v 13.863958 0.000003 -19.021015
v 24.204710 0.000004 -23.303734
v 34.489201 0.000004 -27.563152
v 42.846458 0.000005 -31.024389
v 100.000000 -0.000008 46.508347
v 6.983311 0.000016 -100.000000
v 97.721962 -0.000007 42.920265
v 94.019905 -0.000006 37.089233
v 89.744446 -0.000005 30.355076
v 83.851578 -0.000003 21.073347
v 75.959534 -0.000001 8.642782
v 66.261719 0.000001 -6.631999
v 54.882496 0.000004 -24.555153
v 43.366436 0.000007 -42.693817
v 31.182842 0.000010 -61.883884
v 19.083073 0.000013 -80.941948
v 49.124466 0.000005 -33.624485
v 100.000000 -0.000006 39.536118
v 20.927773 0.000016 -100.000000
v 98.063469 -0.000006 36.118790
v 94.916405 -0.000005 30.565250
v 91.281891 -0.000004 24.151569
v 86.272446 -0.000002 15.311550
v 79.563522 -0.000001 3.472548
v 71.319542 0.000002 -11.075318
v 61.646217 0.000005 -28.145521
v 51.856575 0.000007 -45.420979
v 41.499466 0.000010 -63.697803
v 31.213615 0.000013 -81.848907
v 56.751396 0.000006 -36.783249
v 100.000000 -0.000006 34.213947
v 31.572111 0.000016 -100.000000
v 98.324158 -0.000005 30.926964
v 95.600739 -0.000004 25.585247
v 92.455482 -0.000003 19.416195
v 88.120384 -0.000002 10.913353
v 82.314590 0.000000 -0.474089
v 75.180374 0.000002 -14.467073
v 66.809227 0.000005 -30.886187
v 58.337418 0.000008 -47.502724
v 49.374535 0.000011 -65.082436
v 40.473320 0.000013 -82.541222
v 62.573322 0.000006 -39.194454
v 100.000000 -0.000005 28.410397
v 43.179211 0.000016 -100.000000
v 98.608421 -0.000004 25.265547
v 96.346962 -0.000003 20.154812
v 93.735222 -0.000002 14.252516
v 90.135468 -0.000001 6.117346
v 85.314484 0.000001 -4.777692
v 79.390411 0.000003 -18.165606
v 72.439224 0.000006 -33.874741
v 65.404442 0.000008 -49.772762
v 57.961891 0.000011 -66.592308
v 50.570549 0.000014 -83.296158
v 68.921829 0.000007 -41.823746
v 100.000000 -0.000004 21.911903
v 56.176197 0.000016 -100.000000
v 98.926727 -0.000003 18.926207
v 97.182541 -0.000002 14.074112
v 95.168205 -0.000001 8.470514
v 92.391846 -0.000000 0.747043
v 88.673599 0.000002 -9.596627
v 84.104576 0.000004 -22.307016
v 78.743378 0.000006 -37.221157
v 73.317711 0.000009 -52.314621
v 67.577538 0.000011 -68.282974
v 61.876865 0.000014 -84.141495
v 76.030540 0.000007 -44.767883
v 100.000000 -0.000003 16.306965
v 67.386070 0.000016 -100.000000
v 99.201263 -0.000002 13.458536
v 97.903229 -0.000001 8.829518
v 96.404152 -0.000001 3.483549
v 94.337967 0.000001 -3.884834
v 91.570824 0.000002 -13.752951
v 88.170532 0.000004 -25.878975
v 84.180702 0.000007 -40.107433
v 80.142891 0.000009 -54.506969
v 75.871017 0.000011 -69.741173
v 71.628540 0.000014 -84.870598
v 82.161789 0.000008 -47.307198
v 100.000000 -0.000002 11.004512
v 77.990982 0.000016 -100.000000
v 99.460983 -0.000001 8.285943
v 98.585022 -0.000001 3.867963
v 97.573395 0.000000 -1.234283
v 96.179062 0.000001 -8.266740
v 94.311699 0.000003 -17.684969
v 92.017059 0.000005 -29.258165
v 89.324577 0.000007 -42.837944
v 86.599724 0.000009 -56.581005
v 83.716919 0.000012 -71.120674
v 80.853943 0.000014 -85.560349
v 87.962151 0.000008 -49.709473
v 100.000000 -0.000001 5.798531
v 88.402939 0.000016 -100.000000
v 99.715981 -0.000001 3.207460
v 99.254417 0.000000 -1.003322
v 98.721367 0.000001 -5.866279
v 97.986656 0.000002 -12.568921
v 97.002708 0.000004 -21.545446
v 95.793602 0.000005 -32.575874
v 94.374878 0.000007 -45.518776
v 92.939087 0.000010 -58.617306
v 91.420067 0.000012 -72.475090
v 89.911499 0.000014 -86.237549
v 93.656982 0.000008 -52.068039
v 100.000000 0.000007 -42.387978
v 15.224051 -0.000002 15.224051
v 24.322754 -0.000001 9.040754
v 33.245667 -0.000000 2.976924
v 41.259613 0.000000 -2.469195
v 49.229965 0.000001 -7.885684
v 55.706730 0.000002 -12.287166
v 60.572105 0.000003 -15.593575
v 66.482880 0.000003 -19.610420
v 70.994797 0.000004 -22.676630
v 75.914818 0.000004 -26.020172
v 81.423981 0.000005 -29.764088
v 86.175613 0.000005 -32.993202
v 90.670822 0.000006 -36.048054
v 95.084244 0.000006 -39.047325
v 100.000000 0.000005 -31.058270
v 37.883461 -0.000006 37.883461
v 44.550209 -0.000005 30.484190
v 51.088154 -0.000004 23.227877
v 56.960091 -0.000003 16.710751
v 62.800079 -0.000002 10.229080
v 67.545700 -0.000001 4.962025
v 71.110626 -0.000000 1.005392
v 75.441528 0.000001 -3.801385
v 78.747482 0.000001 -7.470581
v 82.352448 0.000002 -11.471649
v 86.389084 0.000003 -15.951822
v 89.870682 0.000003 -19.815964
v 93.164383 0.000004 -23.471567
v 96.398155 0.000004 -27.060661
v 100.000000 0.000004 -21.603056
v 56.793888 -0.000009 56.793888
v 61.431046 -0.000008 48.379822
v 65.978615 -0.000007 40.128319
v 70.062927 -0.000005 32.717381
v 74.125031 -0.000004 25.346762
v 77.425919 -0.000003 19.357342
v 79.905556 -0.000002 14.858065
v 82.917984 -0.000002 9.392050
v 85.217484 -0.000001 5.219632
v 87.724976 -0.000000 0.669827
v 90.532722 0.000001 -4.424792
v 92.954391 0.000001 -8.818892
v 95.245377 0.000002 -12.975855
v 97.494682 0.000003 -17.057184
v 100.000000 0.000002 -14.193138
v 71.613724 -0.000012 71.613724
v 74.660324 -0.000010 62.404373
v 77.648056 -0.000009 53.372955
v 80.331444 -0.000007 45.261551
v 83.000229 -0.000006 37.194279
v 85.168900 -0.000005 30.638752
v 86.798012 -0.000004 25.714211
v 88.777168 -0.000003 19.731560
v 90.287933 -0.000002 15.164774
v 91.935349 -0.000002 10.184931
v 93.780029 -0.000001 4.608779
v 95.371063 0.000000 -0.200643
v 96.876228 0.000001 -4.750511
v 98.354012 0.000002 -9.217600
v 100.000000 0.000001 -8.727278
v 82.545441 -0.000013 82.545441
v 84.418777 -0.000012 72.749466
v 86.255920 -0.000010 63.142746
v 87.905922 -0.000009 54.514648
v 89.546936 -0.000007 45.933495
v 90.880447 -0.000006 38.960384
v 91.882172 -0.000005 33.722153
v 93.099152 -0.000004 27.358410
v 94.028107 -0.000004 22.500721
v 95.041092 -0.000003 17.203663
v 96.175369 -0.000002 11.272313
v 97.153687 -0.000001 6.156533
v 98.079208 -0.000000 1.316840
v 98.987892 0.000001 -3.434800
v 100.000000 0.000001 -4.439062
v 91.121872 -0.000015 91.121872
v 92.074738 -0.000013 80.865662
v 93.009186 -0.000012 70.807594
v 93.848442 -0.000010 61.774124
v 94.683136 -0.000009 52.789810
v 95.361412 -0.000007 45.489082
v 95.870934 -0.000007 40.004749
v 96.489937 -0.000005 33.342018
v 96.962448 -0.000005 28.256105
v 97.477692 -0.000004 22.710178
v 98.054634 -0.000003 16.500160
v 98.552246 -0.000002 11.144028
v 99.023003 -0.000001 6.076953
v 99.485199 -0.000000 1.102069
v 100.000000 0.000011 -66.767349
v -33.534698 0.000005 -33.534698
v -19.202892 0.000006 -37.101444
v -5.147987 0.000007 -40.599277
v 7.475177 0.000007 -43.740791
v 20.029659 0.000008 -46.865211
v 30.231531 0.000008 -49.404137
v 37.895218 0.000008 -51.311394
v 47.205566 0.000009 -53.628452
v 54.312504 0.000009 -55.397148
v 62.062256 0.000009 -57.325821
v 70.740005 0.000010 -59.485439
v 78.224548 0.000010 -61.348106
v 85.305161 0.000010 -63.110252
v 92.256950 0.000011 -64.840340
v 100.000000 0.000013 -80.487747
v -60.975487 0.000010 -60.975487
v -43.698555 0.000010 -63.069672
v -26.755432 0.000011 -65.123390
v -11.538261 0.000011 -66.967903
v 3.596111 0.000011 -68.802383
v 15.894421 0.000011 -70.293091
v 25.132957 0.000012 -71.412918
v 36.356541 0.000012 -72.773354
v 44.923927 0.000012 -73.811829
v 54.266220 0.000012 -74.944229
v 64.727203 0.000012 -76.212234
v 73.749779 0.000013 -77.305885
v 82.285431 0.000013 -78.340515
v 90.665787 0.000013 -79.356323
v 100.000000 0.000015 -93.495911
v -86.991829 0.000014 -86.991829
v -66.922653 0.000014 -87.689896
v -47.241234 0.000014 -88.374466
v -29.564716 0.000014 -88.989304
v -11.984371 0.000015 -89.600800
v 2.301550 0.000015 -90.097702
v 13.033192 0.000015 -90.470978
v 26.070694 0.000015 -90.924454
v 36.022717 0.000015 -91.270615
v 46.874878 0.000015 -91.648079
v 59.026531 0.000015 -92.070747
v 69.507309 0.000015 -92.435303
v 79.422462 0.000015 -92.780174
v 89.157219 0.000015 -93.118774
vn -0.0000 1.0000 0.0000
usemtl None.001
s 1
f 330//1 316//1 2//1 184//1
f 183//1 4//1 5//1 185//1
f 285//1 271//1 7//1 186//1
f 270//1 256//1 9//1 187//1
f 255//1 241//1 11//1 188//1
f 240//1 226//1 13//1 189//1
f 225//1 211//1 15//1 190//1
f 210//1 196//1 17//1 191//1
f 195//1 85//1 19//1 192//1
f 300//1 286//1 21//1 193//1
f 315//1 301//1 23//1 194//1
f 302//1 303//1 36//1 24//1
f 287//1 288//1 35//1 22//1
f 86//1 87//1 34//1 20//1
f 197//1 198//1 33//1 18//1
f 212//1 213//1 32//1 16//1
f 227//1 228//1 31//1 14//1
f 242//1 243//1 30//1 12//1
f 257//1 258//1 29//1 10//1
f 272//1 273//1 28//1 8//1
f 1//1 26//1 27//1 6//1
f 317//1 318//1 25//1 3//1
f 303//1 304//1 48//1 36//1
f 288//1 289//1 47//1 35//1
f 87//1 88//1 46//1 34//1
f 198//1 199//1 45//1 33//1
f 213//1 214//1 44//1 32//1
f 228//1 229//1 43//1 31//1
f 243//1 244//1 42//1 30//1
f 258//1 259//1 41//1 29//1
f 273//1 274//1 40//1 28//1
f 26//1 37//1 39//1 27//1
f 318//1 319//1 38//1 25//1
f 304//1 305//1 60//1 48//1
f 289//1 290//1 59//1 47//1
f 88//1 89//1 58//1 46//1
f 199//1 200//1 57//1 45//1
f 214//1 215//1 56//1 44//1
f 229//1 230//1 55//1 43//1
f 244//1 245//1 54//1 42//1
f 259//1 260//1 53//1 41//1
f 274//1 275//1 52//1 40//1
f 37//1 49//1 51//1 39//1
f 319//1 320//1 50//1 38//1
f 305//1 306//1 72//1 60//1
f 290//1 291//1 71//1 59//1
f 89//1 90//1 70//1 58//1
f 200//1 201//1 69//1 57//1
f 215//1 216//1 68//1 56//1
f 230//1 231//1 67//1 55//1
f 245//1 246//1 66//1 54//1
f 260//1 261//1 65//1 53//1
f 275//1 276//1 64//1 52//1
f 49//1 61//1 63//1 51//1
f 320//1 321//1 62//1 50//1
f 306//1 307//1 84//1 72//1
f 291//1 292//1 83//1 71//1
f 90//1 91//1 82//1 70//1
f 201//1 202//1 81//1 69//1
f 216//1 217//1 80//1 68//1
f 231//1 232//1 79//1 67//1
f 246//1 247//1 78//1 66//1
f 261//1 262//1 77//1 65//1
f 276//1 277//1 76//1 64//1
f 61//1 73//1 75//1 63//1
f 321//1 322//1 74//1 62//1
f 69//1 81//1 91//1 90//1
f 57//1 69//1 90//1 89//1
f 45//1 57//1 89//1 88//1
f 33//1 45//1 88//1 87//1
f 18//1 33//1 87//1 86//1
f 191//1 17//1 85//1 195//1
f 81//1 100//1 104//1 91//1
f 307//1 308//1 103//1 84//1
f 292//1 293//1 102//1 83//1
f 91//1 104//1 101//1 82//1
f 202//1 203//1 100//1 81//1
f 217//1 218//1 99//1 80//1
f 232//1 233//1 98//1 79//1
f 247//1 248//1 97//1 78//1
f 262//1 263//1 96//1 77//1
f 277//1 278//1 95//1 76//1
f 73//1 92//1 94//1 75//1
f 322//1 323//1 93//1 74//1
f 100//1 113//1 117//1 104//1
f 308//1 309//1 116//1 103//1
f 293//1 294//1 115//1 102//1
f 104//1 117//1 114//1 101//1
f 203//1 204//1 113//1 100//1
f 218//1 219//1 112//1 99//1
f 233//1 234//1 111//1 98//1
f 248//1 249//1 110//1 97//1
f 263//1 264//1 109//1 96//1
f 278//1 279//1 108//1 95//1
f 92//1 105//1 107//1 94//1
f 323//1 324//1 106//1 93//1
f 113//1 126//1 130//1 117//1
f 309//1 310//1 129//1 116//1
f 294//1 295//1 128//1 115//1
f 117//1 130//1 127//1 114//1
f 204//1 205//1 126//1 113//1
f 219//1 220//1 125//1 112//1
f 234//1 235//1 124//1 111//1
f 249//1 250//1 123//1 110//1
f 264//1 265//1 122//1 109//1
f 279//1 280//1 121//1 108//1
f 105//1 118//1 120//1 107//1
f 324//1 325//1 119//1 106//1
f 126//1 139//1 143//1 130//1
f 310//1 311//1 142//1 129//1
f 295//1 296//1 141//1 128//1
f 130//1 143//1 140//1 127//1
f 205//1 206//1 139//1 126//1
f 220//1 221//1 138//1 125//1
f 235//1 236//1 137//1 124//1
f 250//1 251//1 136//1 123//1
f 265//1 266//1 135//1 122//1
f 280//1 281//1 134//1 121//1
f 118//1 131//1 133//1 120//1
f 325//1 326//1 132//1 119//1
f 139//1 152//1 156//1 143//1
f 311//1 312//1 155//1 142//1
f 296//1 297//1 154//1 141//1
f 143//1 156//1 153//1 140//1
f 206//1 207//1 152//1 139//1
f 221//1 222//1 151//1 138//1
f 236//1 237//1 150//1 137//1
f 251//1 252//1 149//1 136//1
f 266//1 267//1 148//1 135//1
f 281//1 282//1 147//1 134//1
f 131//1 144//1 146//1 133//1
f 326//1 327//1 145//1 132//1
f 152//1 165//1 169//1 156//1
f 312//1 313//1 168//1 155//1
f 297//1 298//1 167//1 154//1
f 156//1 169//1 166//1 153//1
f 207//1 208//1 165//1 152//1
f 222//1 223//1 164//1 151//1
f 237//1 238//1 163//1 150//1
f 252//1 253//1 162//1 149//1
f 267//1 268//1 161//1 148//1
f 282//1 283//1 160//1 147//1
f 144//1 157//1 159//1 146//1
f 327//1 328//1 158//1 145//1
f 165//1 178//1 182//1 169//1
f 313//1 314//1 181//1 168//1
f 298//1 299//1 180//1 167//1
f 169//1 182//1 179//1 166//1
f 208//1 209//1 178//1 165//1
f 223//1 224//1 177//1 164//1
f 238//1 239//1 176//1 163//1
f 253//1 254//1 175//1 162//1
f 268//1 269//1 174//1 161//1
f 283//1 284//1 173//1 160//1
f 157//1 170//1 172//1 159//1
f 328//1 329//1 171//1 158//1
f 178//1 191//1 195//1 182//1
f 314//1 315//1 194//1 181//1
f 299//1 300//1 193//1 180//1
f 182//1 195//1 192//1 179//1
f 209//1 210//1 191//1 178//1
f 224//1 225//1 190//1 177//1
f 239//1 240//1 189//1 176//1
f 254//1 255//1 188//1 175//1
f 269//1 270//1 187//1 174//1
f 284//1 285//1 186//1 173//1
f 170//1 183//1 185//1 172//1
f 329//1 330//1 184//1 171//1
f 177//1 190//1 210//1 209//1
f 164//1 177//1 209//1 208//1
f 151//1 164//1 208//1 207//1
f 138//1 151//1 207//1 206//1
f 125//1 138//1 206//1 205//1
f 112//1 125//1 205//1 204//1
f 99//1 112//1 204//1 203//1
f 80//1 99//1 203//1 202//1
f 68//1 80//1 202//1 201//1
f 56//1 68//1 201//1 200//1
f 44//1 56//1 200//1 199//1
f 32//1 44//1 199//1 198//1
f 16//1 32//1 198//1 197//1
f 190//1 15//1 196//1 210//1
f 176//1 189//1 225//1 224//1
f 163//1 176//1 224//1 223//1
f 150//1 163//1 223//1 222//1
f 137//1 150//1 222//1 221//1
f 124//1 137//1 221//1 220//1
f 111//1 124//1 220//1 219//1
f 98//1 111//1 219//1 218//1
f 79//1 98//1 218//1 217//1
f 67//1 79//1 217//1 216//1
f 55//1 67//1 216//1 215//1
f 43//1 55//1 215//1 214//1
f 31//1 43//1 214//1 213//1
f 14//1 31//1 213//1 212//1
f 189//1 13//1 211//1 225//1
f 175//1 188//1 240//1 239//1
f 162//1 175//1 239//1 238//1
f 149//1 162//1 238//1 237//1
f 136//1 149//1 237//1 236//1
f 123//1 136//1 236//1 235//1
f 110//1 123//1 235//1 234//1
f 97//1 110//1 234//1 233//1
f 78//1 97//1 233//1 232//1
f 66//1 78//1 232//1 231//1
f 54//1 66//1 231//1 230//1
f 42//1 54//1 230//1 229//1
f 30//1 42//1 229//1 228//1
f 12//1 30//1 228//1 227//1
f 188//1 11//1 226//1 240//1
f 174//1 187//1 255//1 254//1
f 161//1 174//1 254//1 253//1
f 148//1 161//1 253//1 252//1
f 135//1 148//1 252//1 251//1
f 122//1 135//1 251//1 250//1
f 109//1 122//1 250//1 249//1
f 96//1 109//1 249//1 248//1
f 77//1 96//1 248//1 247//1
f 65//1 77//1 247//1 246//1
f 53//1 65//1 246//1 245//1
f 41//1 53//1 245//1 244//1
f 29//1 41//1 244//1 243//1
f 10//1 29//1 243//1 242//1
f 187//1 9//1 241//1 255//1
f 173//1 186//1 270//1 269//1
f 160//1 173//1 269//1 268//1
f 147//1 160//1 268//1 267//1
f 134//1 147//1 267//1 266//1
f 121//1 134//1 266//1 265//1
f 108//1 121//1 265//1 264//1
f 95//1 108//1 264//1 263//1
f 76//1 95//1 263//1 262//1
f 64//1 76//1 262//1 261//1
f 52//1 64//1 261//1 260//1
f 40//1 52//1 260//1 259//1
f 28//1 40//1 259//1 258//1
f 8//1 28//1 258//1 257//1
f 186//1 7//1 256//1 270//1
f 172//1 185//1 285//1 284//1
f 159//1 172//1 284//1 283//1
f 146//1 159//1 283//1 282//1
f 133//1 146//1 282//1 281//1
f 120//1 133//1 281//1 280//1
f 107//1 120//1 280//1 279//1
f 94//1 107//1 279//1 278//1
f 75//1 94//1 278//1 277//1
f 63//1 75//1 277//1 276//1
f 51//1 63//1 276//1 275//1
f 39//1 51//1 275//1 274//1
f 27//1 39//1 274//1 273//1
f 6//1 27//1 273//1 272//1
f 185//1 5//1 271//1 285//1
f 179//1 192//1 300//1 299//1
f 166//1 179//1 299//1 298//1
f 153//1 166//1 298//1 297//1
f 140//1 153//1 297//1 296//1
f 127//1 140//1 296//1 295//1
f 114//1 127//1 295//1 294//1
f 101//1 114//1 294//1 293//1
f 82//1 101//1 293//1 292//1
f 70//1 82//1 292//1 291//1
f 58//1 70//1 291//1 290//1
f 46//1 58//1 290//1 289//1
f 34//1 46//1 289//1 288//1
f 20//1 34//1 288//1 287//1
f 192//1 19//1 286//1 300//1
f 180//1 193//1 315//1 314//1
f 167//1 180//1 314//1 313//1
f 154//1 167//1 313//1 312//1
f 141//1 154//1 312//1 311//1
f 128//1 141//1 311//1 310//1
f 115//1 128//1 310//1 309//1
f 102//1 115//1 309//1 308//1
f 83//1 102//1 308//1 307//1
f 71//1 83//1 307//1 306//1
f 59//1 71//1 306//1 305//1
f 47//1 59//1 305//1 304//1
f 35//1 47//1 304//1 303//1
f 22//1 35//1 303//1 302//1
f 193//1 21//1 301//1 315//1
f 181//1 194//1 330//1 329//1
f 168//1 181//1 329//1 328//1
f 155//1 168//1 328//1 327//1
f 142//1 155//1 327//1 326//1
f 129//1 142//1 326//1 325//1
f 116//1 129//1 325//1 324//1
f 103//1 116//1 324//1 323//1
f 84//1 103//1 323//1 322//1
f 72//1 84//1 322//1 321//1
f 60//1 72//1 321//1 320//1
f 48//1 60//1 320//1 319//1
f 36//1 48//1 319//1 318//1
f 24//1 36//1 318//1 317//1
f 194//1 23//1 316//1 330//1
